#N canvas 872 267 485 633 10;
#X obj 74 18 inlet;
#X obj 74 163 sel 0 1, f 20;
#X obj 74 293 f;
#X obj 205 293 f;
#X obj 222 18 loadbang;
#X floatatom 269 269 5 0 0 0 - - -, f 5;
#X obj 165 429 outlet~;
#X obj 271 567 outlet;
#X obj 269 210 f \$1;
#X text 239 365 signal ramp for fade curve;
#X text 334 569 0 or 1;
#X msg 185 18 bang;
#X obj 54 165 tgl 15 0 empty empty empty 17 7 0 10 -262144 -1 -1 0
1;
#X obj 205 211 t b b;
#X msg 232 568 1;
#X msg 147 518 0;
#X obj 74 189 t b b b, f 9;
#X msg 125 211 1;
#X obj 321 17 inlet;
#X text 297 287 0 and 1 are passed with a signal ramp for fade-in/fade-out
(f.e. to provide a smooth on/off), f 25;
#X text 232 587 for fade in \, 1 is sent immediately, f 20;
#X text 163 457 for fade out.sends 0 when it has reached sig~ 0 (workaround
for cyclone's Line~), f 25;
#X text 362 17 fade time;
#X text 124 17 0/1 in;
#X obj 68 18 cnv 5 5 17 empty empty empty 20 12 0 14 -118750 -66577
0;
#X obj 265 567 cnv 5 5 17 empty empty empty 20 12 0 14 -102336 -66577
0;
#X obj 315 17 cnv 5 5 17 empty empty empty 20 12 0 14 -118750 -66577
0;
#X obj 272 536 cnv 3 45 15 empty empty empty 2 7 0 10 -257985 -66577
0;
#N canvas 0 50 299 185 shut 0;
#X obj 30 20 inlet;
#X obj 30 134 outlet;
#X obj 30 51 t b a;
#X msg 30 75 0;
#X obj 80 20 inlet;
#X obj 80 50 t b;
#X msg 80 73 1;
#X text 150 24 right inlet opens \, left inlet passes first item \,
then closes, f 18;
#X obj 24 20 cnv 5 5 17 empty empty empty 20 12 0 14 -118750 -66577
0;
#X obj 24 134 cnv 5 5 17 empty empty empty 20 12 0 14 -102336 -66577
0;
#X obj 74 20 cnv 5 5 17 empty empty empty 20 12 0 14 -118750 -66577
0;
#X obj 30 111 spigot 0;
#X obj 105 126 cnv 15 170 25 empty empty shut_by_default_! 20 13 0
14 -233017 -66577 0;
#X obj 105 146 cnv 2 170 2 empty empty empty 20 12 0 14 -233017 -66577
0;
#X connect 0 0 2 0;
#X connect 2 0 3 0;
#X connect 2 1 11 0;
#X connect 3 0 11 1;
#X connect 4 0 5 0;
#X connect 5 0 6 0;
#X connect 6 0 11 1;
#X connect 11 0 1 0;
#X restore 271 535 pd shut;
#X obj 159 429 cnv 5 5 17 empty empty empty 20 12 0 14 -102336 -66577
0;
#X obj 269 240 max 2;
#X obj 222 163 t b b b;
#X obj 165 403 cos~;
#X text 204 402 DIY hanning;
#X msg 165 211 0.75;
#X obj 165 366 line~;
#X obj 60 480 threshold~ 1 20 1e-005 20, f 15;
#X obj 74 40 route float list;
#X obj 120 64 route 0 1;
#X obj 22 102 t f b b;
#X obj 22 127 max 2;
#X obj 358 213 t f b;
#X obj 358 238 max 2;
#X msg 205 320 1 \$1;
#X msg 74 321 0.75 \$1;
#X msg 334 162 0.75;
#X connect 0 0 37 0;
#X connect 1 0 16 0;
#X connect 1 1 13 0;
#X connect 2 0 44 0;
#X connect 3 0 43 0;
#X connect 4 0 31 0;
#X connect 8 0 30 0;
#X connect 11 0 31 0;
#X connect 12 0 1 0;
#X connect 13 0 3 0;
#X connect 13 1 14 0;
#X connect 14 0 7 0;
#X connect 15 0 28 0;
#X connect 16 0 2 0;
#X connect 16 1 28 1;
#X connect 16 2 17 0;
#X connect 17 0 36 1;
#X connect 18 0 8 0;
#X connect 28 0 7 0;
#X connect 30 0 2 1;
#X connect 30 0 3 1;
#X connect 30 0 5 0;
#X connect 31 0 34 0;
#X connect 31 1 8 0;
#X connect 31 2 45 0;
#X connect 32 0 6 0;
#X connect 32 0 36 0;
#X connect 34 0 35 0;
#X connect 35 0 32 0;
#X connect 36 1 15 0;
#X connect 37 0 1 0;
#X connect 37 1 38 0;
#X connect 38 0 39 0;
#X connect 38 1 41 0;
#X connect 39 0 40 0;
#X connect 39 1 28 1;
#X connect 39 2 17 0;
#X connect 40 0 44 0;
#X connect 41 0 42 0;
#X connect 41 1 14 0;
#X connect 42 0 43 0;
#X connect 43 0 35 0;
#X connect 44 0 35 0;
#X connect 45 0 35 0;
