#N canvas 9 50 803 517 10;
#X declare -stdlib zexy -stdlib iemlib/iemlib1 -stdlib iemlib/iemlib2
-stdpath iemgui -stdpath iemguts -path ./abs -path ./gifs -path ./tables
;
#N canvas 9 620 349 80 GUTS 1;
#N canvas 827 50 699 473 OSC1 0;
#X obj 143 368 cnv 4 62 15 empty empty empty 2 7 0 10 -257985 -66577
0;
#X obj 376 368 cnv 3 56 15 empty empty empty 2 7 0 10 -257985 -66577
0;
#X obj 29 99 iem_receive;
#X msg 29 76 set \$1-OSC1/oct;
#X obj 142 99 iem_receive;
#X msg 142 76 set \$1-OSC1/wave;
#X obj 261 99 iem_receive;
#X msg 261 76 set \$1-OSC1/mod;
#X obj 374 99 iem_receive;
#X msg 374 76 set \$1-OSC1/osc2;
#X obj 495 99 iem_receive;
#X msg 495 76 set \$1-OSC1/pw;
#X obj 142 121 text get \$0-OSC;
#X msg 29 181 get \$1 1;
#X obj 328 223 t b f;
#X obj 29 206 list store 0.5 1 2 4 8;
#X obj 328 247 * 1, f 5;
#X obj 255 418 ol_dac~;
#X obj 495 121 / 127;
#X msg 495 219 0.5;
#X obj 495 150 moses 0.47;
#X obj 495 174 moses 0.53;
#X obj 495 197 t b;
#X floatatom 576 138 5 0 0 0 - - -, f 5;
#X obj 442 220 + 0.035;
#X obj 552 219 - 0.035;
#X obj 278 385 +~;
#X msg 142 145 \$2 \$1;
#X obj 142 234 list split 1;
#X obj 176 258 sel pwm;
#X obj 216 282 t s b;
#X msg 243 306 1;
#X msg 176 282 0;
#X obj 328 19 r \$0-midinote;
#X obj 328 43 mtof;
#X obj 261 121 / 127;
#X obj 261 166 * 5000;
#X obj 376 342 r~ \$0-LFO;
#X floatatom 362 41 0 0 0 0 - - -;
#X text 377 386 ??? : wie moduliert man OSC1 mit OSC2 ?;
#X obj 601 59 r \$0-pdv-ifid;
#X obj 495 250 s \$0-OSC1-pw;
#X obj 328 272 s \$0-OSC1-fr;
#X obj 176 333 s \$0-OSC1-wavetype;
#X obj 261 189 s \$0-OSC1-mod;
#X text 378 319 must be outside subpatch !;
#X floatatom 285 29 5 0 0 0 - - -, f 5;
#X obj 322 19 cnv 5 5 17 empty empty empty 20 12 0 14 -260626 -66577
0;
#X obj 370 342 cnv 5 5 17 empty empty empty 20 12 0 14 -260626 -66577
0;
#N canvas 556 341 693 629 square 0;
#X obj 21 465 rzero~ -1;
#X obj 21 488 rzero~ -1;
#X obj 21 511 rzero~ -1;
#X obj 20 586 outlet~;
#X obj 20 346 rpole~ 0.87467;
#X obj 20 323 *~ 0.12532;
#X obj 20 369 *~ 0.01668;
#X obj 239 280 / 16;
#X floatatom 239 436 7 0 0 0 - - -, f 7;
#X obj 239 255 / 22050;
#X floatatom 286 416 7 0 0 0 - - -, f 7;
#X floatatom 333 396 7 0 0 0 - - -, f 7;
#X floatatom 381 376 7 0 0 0 - - -, f 7;
#X floatatom 428 356 7 0 0 0 - - -, f 7;
#X text 295 437 normalizer for rpole~;
#X text 345 416 normalizer for cpole~;
#X text 391 397 coef for rpole~;
#X text 440 378 coef for cpole~ real part;
#X text 482 355 (same \, other cpole~);
#X obj 20 392 cpole~ 0.9293 0.10812;
#X obj 20 418 cpole~ 0.9293 -0.10812;
#X text 299 256 divide by nyquist frequency of this subpatch \, which
is 22050*16 because of the 16-times oversampling.;
#N canvas 0 50 450 300 butterworth_from_oversampling_example 0;
#X obj 63 51 inlet;
#X floatatom 522 134 5 0 0 0 - - -, f 5;
#X obj 101 153 t f f;
#X msg 101 108 0.667;
#X msg 82 283 0;
#X obj 517 270 loadbang;
#X obj 528 298 inlet;
#X obj 517 322 f;
#X obj 517 346 expr 1 - 2*$f1;
#X obj 63 79 t b b b f;
#X obj 205 228 * -1;
#X obj 163 228 t f f;
#X obj 63 391 f;
#X obj 30 463 outlet;
#X text 515 237 1 to normalize at Nyquist;
#X text 59 30 characteristic frequency \, 0(DC) to 1(Nyquist);
#X obj 283 470 outlet;
#X obj 439 472 outlet;
#X text 439 494 imag2a;
#X text 283 492 real1;
#X text 374 494 real2;
#X obj 500 473 outlet;
#X text 500 495 imag2b;
#X obj 373 470 outlet;
#X text 27 485 normalizer1;
#X obj 173 470 outlet;
#X text 170 492 normalizer2;
#X obj 156 436 expr (($f2-$f1)*($f2-$f1)+$f3*$f3);
#X obj 63 412 t f f;
#X obj 101 176 expr (1 - $f2*$f2) / (1 + $f2*$f2 + 2*$f2*cos($f1))
;
#X obj 163 205 expr 2*$f2*sin($f1) / (1 + $f2*$f2 + 2*$f2*cos($f1))
;
#X obj 82 307 expr (1 - $f2*$f2) / (1 + $f2*$f2 + 2*$f2*cos($f1));
#X obj 522 89 clip 0 1;
#X obj 522 111 expr tan($f1*1.57);
#X obj 101 131 expr $f1*1.5708;
#X text 515 251 0 to normalize at DC;
#X text 119 4 3-pole (or zero) Butterworth filter coefficient calculator
;
#X text 145 109 "theta" in units of pi/2;
#X text 211 138 conjugate pair of pole/zero locations:;
#X text 197 155 real part: (1-r*r)/(1+r*r-2rcos(th));
#X text 245 226 imaginary part: 2rsin(th)/(...);
#X text 270 282 real-valued one \, theta=0;
#X obj 30 439 expr abs($f1-$f2);
#X obj 57 51 cnv 5 5 17 empty empty empty 20 12 0 14 -118750 -66577
0;
#X obj 522 298 cnv 5 5 17 empty empty empty 20 12 0 14 -118750 -66577
0;
#X obj 24 463 cnv 5 5 17 empty empty empty 20 12 0 14 -102336 -66577
0;
#X obj 277 470 cnv 5 5 17 empty empty empty 20 12 0 14 -102336 -66577
0;
#X obj 433 472 cnv 5 5 17 empty empty empty 20 12 0 14 -102336 -66577
0;
#X obj 494 473 cnv 5 5 17 empty empty empty 20 12 0 14 -102336 -66577
0;
#X obj 367 470 cnv 5 5 17 empty empty empty 20 12 0 14 -102336 -66577
0;
#X obj 167 470 cnv 5 5 17 empty empty empty 20 12 0 14 -102336 -66577
0;
#X obj 57 51 cnv 5 5 17 empty empty empty 20 12 0 14 -118750 -66577
0;
#X obj 522 298 cnv 5 5 17 empty empty empty 20 12 0 14 -118750 -66577
0;
#X obj 24 463 cnv 5 5 17 empty empty empty 20 12 0 14 -102336 -66577
0;
#X obj 277 470 cnv 5 5 17 empty empty empty 20 12 0 14 -102336 -66577
0;
#X obj 433 472 cnv 5 5 17 empty empty empty 20 12 0 14 -102336 -66577
0;
#X obj 494 473 cnv 5 5 17 empty empty empty 20 12 0 14 -102336 -66577
0;
#X obj 367 470 cnv 5 5 17 empty empty empty 20 12 0 14 -102336 -66577
0;
#X obj 167 470 cnv 5 5 17 empty empty empty 20 12 0 14 -102336 -66577
0;
#X connect 0 0 9 0;
#X connect 1 0 29 1;
#X connect 1 0 30 1;
#X connect 1 0 31 1;
#X connect 2 0 29 0;
#X connect 2 1 30 0;
#X connect 3 0 34 0;
#X connect 4 0 31 0;
#X connect 5 0 7 0;
#X connect 6 0 7 0;
#X connect 7 0 8 0;
#X connect 8 0 12 1;
#X connect 9 0 12 0;
#X connect 9 1 4 0;
#X connect 9 2 3 0;
#X connect 9 3 32 0;
#X connect 10 0 21 0;
#X connect 11 0 17 0;
#X connect 11 0 27 2;
#X connect 11 1 10 0;
#X connect 12 0 28 0;
#X connect 27 0 25 0;
#X connect 28 0 42 0;
#X connect 28 1 27 0;
#X connect 29 0 23 0;
#X connect 29 0 27 1;
#X connect 30 0 11 0;
#X connect 31 0 16 0;
#X connect 31 0 42 1;
#X connect 32 0 33 0;
#X connect 33 0 1 0;
#X connect 34 0 2 0;
#X connect 42 0 13 0;
#X restore 239 306 pd butterworth_from_oversampling_example;
#X obj 275 484 pack;
#X obj 346 483 pack;
#X obj 428 462 * -1;
#X msg 275 511 set \$1 \$2;
#X msg 346 511 set \$1 \$2;
#X obj 21 297 expr~ ($v1 > $v2) * 2 - 1;
#X obj 138 124 line~;
#X obj 21 442 *~ 0.125;
#X floatatom 122 508 5 0 0 0 - - -, f 5;
#X obj 22 92 line~;
#X obj 22 269 phasor~;
#X obj 239 229 * 1000;
#X msg 239 203 6;
#X floatatom 269 203 5 0 0 0 - - -, f 5;
#X obj 239 54 loadbang;
#X msg 154 71 0.5;
#X obj 22 66 pack 0 20;
#X obj 138 100 pack 0 20;
#X obj 534 553 tgl 15 0 empty empty empty 17 7 0 10 -262144 -1 -1 0
1;
#X obj 534 574 switch~ 1024 1 16;
#X obj 580 501 loadbang;
#X msg 580 536 0;
#X obj 20 561 *~;
#X text 542 60 on/off;
#X text 17 18 frequency;
#X text 165 17 pw;
#X obj 507 61 == 0;
#X obj 507 86 t f f;
#X obj 534 110 sel 0;
#X obj 534 133 del 30;
#X msg 534 156 0;
#X obj 50 561 line~;
#X msg 50 538 \$1 10;
#X obj 51 215 *~;
#X floatatom 316 122 5 0 0 0 - - -, f 5;
#X text 304 21 modulator1;
#X obj 51 242 +~;
#X obj 81 215 -~;
#X obj 81 242 max~ 0;
#X obj 72 174 line~;
#X obj 316 66 pack 0 20;
#X obj 52 143 inlet~;
#X text 60 122 LFO~;
#X obj 22 242 +~;
#X obj 138 36 r \$0-OSC1-pw;
#X obj 22 36 r \$0-OSC1-fr;
#X obj 316 40 r \$0-OSC1-mod;
#X obj 507 36 r \$0-OSC1-wavetype;
#X obj 14 586 cnv 5 5 17 empty empty empty 20 12 0 14 -102336 -66577
0;
#X obj 14 586 cnv 5 5 17 empty empty empty 20 12 0 14 -102336 -66577
0;
#X obj 46 143 cnv 5 5 17 empty empty empty 20 12 0 14 -118750 -66577
0;
#X obj 16 36 cnv 5 5 17 empty empty empty 20 12 0 14 -260626 -66577
0;
#X obj 132 36 cnv 5 5 17 empty empty empty 20 12 0 14 -260626 -66577
0;
#X obj 310 40 cnv 5 5 17 empty empty empty 20 12 0 14 -260626 -66577
0;
#X obj 501 36 cnv 5 5 17 empty empty empty 20 12 0 14 -260626 -66577
0;
#X obj 14 586 cnv 5 5 17 empty empty empty 20 12 0 14 -102336 -66577
0;
#X obj 14 586 cnv 5 5 17 empty empty empty 20 12 0 14 -102336 -66577
0;
#X obj 46 143 cnv 5 5 17 empty empty empty 20 12 0 14 -118750 -66577
0;
#X obj 16 36 cnv 5 5 17 empty empty empty 20 12 0 14 -260626 -66577
0;
#X obj 132 36 cnv 5 5 17 empty empty empty 20 12 0 14 -260626 -66577
0;
#X obj 310 40 cnv 5 5 17 empty empty empty 20 12 0 14 -260626 -66577
0;
#X obj 501 36 cnv 5 5 17 empty empty empty 20 12 0 14 -260626 -66577
0;
#X connect 0 0 1 0;
#X connect 1 0 2 0;
#X connect 2 0 45 0;
#X connect 4 0 6 0;
#X connect 5 0 4 0;
#X connect 6 0 19 0;
#X connect 7 0 22 0;
#X connect 9 0 7 0;
#X connect 19 0 20 0;
#X connect 19 1 20 1;
#X connect 20 0 30 0;
#X connect 22 0 8 0;
#X connect 22 0 5 1;
#X connect 22 1 10 0;
#X connect 22 1 6 1;
#X connect 22 2 11 0;
#X connect 22 2 4 1;
#X connect 22 3 12 0;
#X connect 22 3 23 0;
#X connect 22 3 24 0;
#X connect 22 4 13 0;
#X connect 22 4 23 1;
#X connect 22 4 25 0;
#X connect 23 0 26 0;
#X connect 24 0 27 0;
#X connect 25 0 24 1;
#X connect 26 0 19 0;
#X connect 27 0 20 0;
#X connect 28 0 5 0;
#X connect 29 0 28 1;
#X connect 30 0 0 0;
#X connect 31 0 30 1;
#X connect 32 0 66 0;
#X connect 33 0 28 0;
#X connect 34 0 9 0;
#X connect 35 0 34 0;
#X connect 36 0 34 0;
#X connect 37 0 38 0;
#X connect 37 0 35 0;
#X connect 38 0 40 0;
#X connect 39 0 32 0;
#X connect 40 0 29 0;
#X connect 41 0 42 0;
#X connect 43 0 44 0;
#X connect 44 0 41 0;
#X connect 45 0 3 0;
#X connect 49 0 50 0;
#X connect 50 0 55 0;
#X connect 50 1 51 0;
#X connect 51 0 52 0;
#X connect 51 1 41 0;
#X connect 52 0 53 0;
#X connect 53 0 41 0;
#X connect 54 0 45 1;
#X connect 55 0 54 0;
#X connect 56 0 59 0;
#X connect 59 0 66 1;
#X connect 60 0 61 0;
#X connect 61 0 59 1;
#X connect 62 0 56 1;
#X connect 62 0 60 0;
#X connect 63 0 62 0;
#X connect 64 0 56 0;
#X connect 66 0 33 0;
#X connect 67 0 40 0;
#X connect 68 0 39 0;
#X connect 69 0 57 0;
#X connect 69 0 63 0;
#X connect 70 0 49 0;
#X restore 375 367 pd square;
#N canvas 269 488 545 483 tabread 0;
#X obj 441 409 switch~;
#X obj 467 346 loadbang;
#X msg 467 369 1;
#X obj 35 360 *~ 8192;
#X text 87 360 table size;
#X obj 36 80 line~;
#X obj 36 58 pack 0 10;
#X obj 35 336 phasor~;
#X obj 33 449 outlet~;
#X obj 34 425 *~;
#X text 383 244 on/off;
#X text 28 17 frequency;
#X obj 34 393 tabread~ pdv_sin;
#X obj 441 386 tgl 15 0 empty empty empty 17 7 0 10 -262144 -1 -1 1
1;
#X obj 36 115 *~ 1;
#X obj 147 34 inlet;
#X text 125 15 saw modifier;
#X floatatom 147 58 5 0 0 0 - - -, f 5;
#X obj 387 288 t f f;
#X obj 414 312 sel 0;
#X obj 414 335 del 30;
#X msg 414 358 0;
#X obj 387 409 line~;
#X msg 387 386 \$1 10;
#X obj 125 148 *~;
#X floatatom 202 50 5 0 0 0 - - -, f 5;
#X text 234 14 modulator1;
#X floatatom 96 75 5 0 0 0 - - -, f 5;
#X obj 35 243 +~;
#X obj 126 227 +~;
#X obj 148 176 -~;
#X obj 148 203 max~ 0;
#X obj 246 131 line~;
#X obj 246 59 pack 0 20;
#X text 142 95 LFO~;
#X obj 387 264 r \$0-OSC1-wavetype;
#X obj 124 116 r~ \$0-LFO;
#X obj 246 33 r \$0-OSC1-mod;
#X obj 36 35 r \$0-OSC1-fr;
#X msg 300 376 set \$1;
#X obj 300 352 inlet;
#X obj 27 449 cnv 5 5 17 empty empty empty 20 12 0 14 -102336 -66577
0;
#X obj 141 34 cnv 5 5 17 empty empty empty 20 12 0 14 -118750 -66577
0;
#X obj 381 264 cnv 5 5 17 empty empty empty 20 12 0 14 -260626 -66577
0;
#X obj 118 116 cnv 5 5 17 empty empty empty 20 12 0 14 -260626 -66577
0;
#X obj 240 33 cnv 5 5 17 empty empty empty 20 12 0 14 -260626 -66577
0;
#X obj 30 35 cnv 5 5 17 empty empty empty 20 12 0 14 -260626 -66577
0;
#X obj 294 352 cnv 5 5 17 empty empty empty 20 12 0 14 -118750 -66577
0;
#X obj 27 449 cnv 5 5 17 empty empty empty 20 12 0 14 -102336 -66577
0;
#X obj 141 34 cnv 5 5 17 empty empty empty 20 12 0 14 -118750 -66577
0;
#X obj 381 264 cnv 5 5 17 empty empty empty 20 12 0 14 -260626 -66577
0;
#X obj 118 116 cnv 5 5 17 empty empty empty 20 12 0 14 -260626 -66577
0;
#X obj 240 33 cnv 5 5 17 empty empty empty 20 12 0 14 -260626 -66577
0;
#X obj 30 35 cnv 5 5 17 empty empty empty 20 12 0 14 -260626 -66577
0;
#X obj 294 352 cnv 5 5 17 empty empty empty 20 12 0 14 -118750 -66577
0;
#X connect 1 0 2 0;
#X connect 2 0 13 0;
#X connect 3 0 12 0;
#X connect 5 0 14 0;
#X connect 5 0 30 1;
#X connect 6 0 5 0;
#X connect 6 0 27 0;
#X connect 7 0 3 0;
#X connect 9 0 8 0;
#X connect 12 0 9 0;
#X connect 13 0 0 0;
#X connect 14 0 28 0;
#X connect 15 0 14 1;
#X connect 15 0 17 0;
#X connect 18 0 23 0;
#X connect 18 1 19 0;
#X connect 19 0 20 0;
#X connect 19 1 13 0;
#X connect 20 0 21 0;
#X connect 21 0 13 0;
#X connect 22 0 9 1;
#X connect 23 0 22 0;
#X connect 24 0 29 0;
#X connect 28 0 7 0;
#X connect 29 0 28 1;
#X connect 30 0 31 0;
#X connect 31 0 29 1;
#X connect 32 0 24 1;
#X connect 32 0 30 0;
#X connect 33 0 32 0;
#X connect 35 0 18 0;
#X connect 36 0 24 0;
#X connect 37 0 25 0;
#X connect 37 0 33 0;
#X connect 38 0 6 0;
#X connect 39 0 12 0;
#X connect 40 0 39 0;
#X restore 142 367 pd tabread;
#X obj 595 59 cnv 5 5 17 empty empty empty 20 12 0 14 -260626 -66577
0;
#X obj 255 189 cnv 5 5 17 empty empty empty 20 12 0 14 -194593 -66577
0;
#X obj 170 333 cnv 5 5 17 empty empty empty 20 12 0 14 -194593 -66577
0;
#X obj 322 272 cnv 5 5 17 empty empty empty 20 12 0 14 -194593 -66577
0;
#X obj 489 250 cnv 5 5 17 empty empty empty 20 12 0 14 -194593 -66577
0;
#X obj 23 76 cnv 5 5 17 empty empty empty 20 12 0 14 -260626 -66577
0;
#X obj 136 76 cnv 5 5 17 empty empty empty 20 12 0 14 -260626 -66577
0;
#X obj 255 76 cnv 5 5 17 empty empty empty 20 12 0 14 -260626 -66577
0;
#X obj 368 76 cnv 5 5 17 empty empty empty 20 12 0 14 -260626 -66577
0;
#X obj 489 76 cnv 5 5 17 empty empty empty 20 12 0 14 -260626 -66577
0;
#X obj 28 16 cnv 15 70 20 empty empty OSC1 20 12 0 14 -233017 -66577
0;
#X floatatom 317 165 5 0 0 0 - - -, f 5;
#X obj 261 143 pow 3;
#X connect 2 0 13 0;
#X connect 3 0 2 0;
#X connect 4 0 12 0;
#X connect 5 0 4 0;
#X connect 6 0 35 0;
#X connect 7 0 6 0;
#X connect 9 0 8 0;
#X connect 10 0 18 0;
#X connect 11 0 10 0;
#X connect 12 0 27 0;
#X connect 13 0 15 0;
#X connect 14 0 16 0;
#X connect 14 1 16 1;
#X connect 15 0 14 0;
#X connect 16 0 42 0;
#X connect 18 0 20 0;
#X connect 18 0 23 0;
#X connect 19 0 41 0;
#X connect 20 0 24 0;
#X connect 20 1 21 0;
#X connect 21 0 22 0;
#X connect 21 1 25 0;
#X connect 22 0 19 0;
#X connect 24 0 41 0;
#X connect 25 0 41 0;
#X connect 26 0 17 0;
#X connect 26 0 17 1;
#X connect 27 0 28 0;
#X connect 28 0 50 0;
#X connect 28 1 29 0;
#X connect 29 0 32 0;
#X connect 29 1 30 0;
#X connect 30 0 50 1;
#X connect 30 1 31 0;
#X connect 31 0 43 0;
#X connect 32 0 43 0;
#X connect 33 0 34 0;
#X connect 34 0 16 0;
#X connect 34 0 38 0;
#X connect 35 0 63 0;
#X connect 36 0 44 0;
#X connect 36 0 62 0;
#X connect 37 0 49 0;
#X connect 40 0 3 0;
#X connect 40 0 5 0;
#X connect 40 0 7 0;
#X connect 40 0 9 0;
#X connect 40 0 11 0;
#X connect 46 0 34 0;
#X connect 49 0 26 1;
#X connect 50 0 26 0;
#X connect 63 0 36 0;
#X restore 81 22 pd OSC1;
#N canvas 401 588 475 218 INIT 0;
#X obj 315 21 text define -k \$0-pos;
#A set moveguis-r 802 170 \; movebgnd-r 802 145 \; delay/pan-r 478
453 \; mixer/noise-r 435 332 \; mixer/osc2-r 290 332 \; mixer/osc1-r
207 333 \; mod/mode-r 122 97 \; time-r 720 95 \; filt/type-r 644 229
\; OSC2/wave-r 431 97 \; OSC2/oct-r 364 97 \; OSC1/wave-r 277 98 \;
OSC1/oct-r 211 98 \; filt/adsr/d-r 545 115 \; filt/adsr/r-r 600 115
\; filt/adsr/s-r 572 115 \; filt/adsr/a-r 517 115 \; amp/adsr/d-r 240
418 \; amp/adsr/r-r 297 418 \; amp/adsr/s-r 269 418 \; amp/adsr/a-r
211 418 \; filter/line-r 649 175 \; filter/inf-r 649 108 \; mixer/wp-r
372 323 \; amp/inf-r 399 443 \; amp/tog-r 436 406 \; delay/tog-r 475
405 \; global/velo-r 90 439 \; global/poly-r 90 368 \; phasor/tog-r
672 405 \; phaser/mix2-r 743 451 \; phaser/mix1 704 451 \; phaser/fb-r
745 404 \; OSC2/pw-r 410 202 \; OSC1/pw-r 258 201 \; global/panmod-r
91 296 \; del/mix-r 617 424 \; del/fb-r 556 424 \; filt/adsr-r 590
312 \; filt/mod-r 524 312 \; filt/cut-r 523 234 \; filt/res-r 590 235
\; glob/pan-r 139 434 \; glob/vol-r 32 435 \; glob/glis-r 33 307 \;
glob/tune-r 139 308 \; amp/mod-r 345 422 \; OSC2/pitch-r 451 233 \;
OSC2/mod-r 365 232 \; OSC1/mod-r 215 232 \; OSC1/osc2-r 298 232 \;
mod/pm-r 32 198 \; mod/freq-r 33 120 \;;
#X obj 23 20 loadbang;
#X obj 23 44 del 100;
#X obj 13 69 s \$0-lb;
#X obj 13 69 s \$0-lb;
#X obj 148 21 r \$0-lb;
#X obj 343 102 \$0;
#X floatatom 345 127 5 0 0 0 - - -, f 5;
#X obj 347 77 bng 15 250 50 0 empty empty empty 17 7 0 10 -262144 -1
-1;
#X obj 315 44 text define -k \$0-OSC;
#A set pdv_tri 1 \; pdv_ramp 1 \; pwm 1 \; pdv_ramp -1 \; pdv_sin 1
\; pdv_square 1 \; pdv_noise 1 \; pdv_square -1 \;;
#X obj 148 96 s \$0-pdv-interface-r;
#X obj 148 120 r \$0-pdv-interface;
#X obj 148 143 route dollar0;
#X obj 148 166 s \$0-pdv-ifid;
#X floatatom 101 160 5 0 0 0 - - -, f 5;
#X msg 148 74 getdollar0 \, loadimages;
#X obj 148 46 del 500;
#X obj 203 46 del 500;
#X obj 7 69 cnv 5 5 17 empty empty empty 20 12 0 14 -194593 -66577
0;
#X obj 7 69 cnv 5 5 17 empty empty empty 20 12 0 14 -194593 -66577
0;
#X obj 142 21 cnv 5 5 17 empty empty empty 20 12 0 14 -260626 -66577
0;
#X obj 142 96 cnv 5 5 17 empty empty empty 20 12 0 14 -194593 -66577
0;
#X obj 142 120 cnv 5 5 17 empty empty empty 20 12 0 14 -260626 -66577
0;
#X obj 142 166 cnv 5 5 17 empty empty empty 20 12 0 14 -194593 -66577
0;
#X msg 23 96 \; pd dsp 1;
#X connect 1 0 2 0;
#X connect 2 0 3 0;
#X connect 2 0 24 0;
#X connect 5 0 16 0;
#X connect 6 0 7 0;
#X connect 8 0 6 0;
#X connect 11 0 12 0;
#X connect 12 0 13 0;
#X connect 12 0 14 0;
#X connect 15 0 10 0;
#X connect 16 0 15 0;
#X restore 8 5 pd INIT;
#N canvas 828 50 785 750 TABLES 0;
#X obj 36 130 loadbang;
#X obj 36 153 bng 15 250 50 0 empty reset empty 0 -6 0 8 -262144 -1
-1;
#X obj 26 182 t b b;
#X obj 97 243 f;
#X obj 135 243 + 1;
#X msg 112 215 0;
#X obj 97 271 t b f;
#X obj 42 322 * 0.01;
#X obj 42 300 random 200;
#X obj 42 345 - 1;
#X obj 181 168 t b b;
#X obj 230 221 f;
#X obj 262 221 + 1;
#X obj 179 249 sel 8191;
#X obj 180 194 until 8192;
#X msg 257 193 0;
#X obj 177 278 moses 2048;
#X obj 177 301 / 2048;
#X obj 313 301 / 2048;
#X obj 256 324 - 2;
#X obj 313 327 - 4;
#X obj 256 301 / 2048;
#X obj 256 348 * -1;
#X obj 256 278 moses 6144;
#X obj 261 249 t f f;
#X obj 389 179 loadbang;
#X text 463 3 These tables were pinched from the excellent class projects
by students of Tom Erbe., f 45;
#X obj 34 265 sel 8195;
#X obj 26 211 until 8196;
#X obj 42 368 tabwrite pdv_noise;
#X obj 177 374 tabwrite pdv_tri;
#X msg 388 45 \; pdv_sin sinesum 8192 1 \; pdv_square sinesum 8192
1 0 0.333 0 0.2 0 0.1428 0 0.1111 \; pdv_square normalize \; pdv_ramp
sinesum 8192 1 0.5 0.3333 0.25 0.2 0.16666 0.1428 0.125 0.1111 0.1
\; pdv_ramp normalize \; pdv_pulse sinesum 8192 1 1 1 1 1 1 1 1 1 1
1 1 1 1 1 1 1 \; pdv_pulse normalize;
#X text 387 4 original;
#X msg 22 547 1 \$1;
#X obj 22 572 /;
#X obj 22 500 t b b;
#X msg 21 648 \; pdv_ramp sinesum 8192 1 0.5 0.333333 0.25 0.2 0.166667
0.142857 0.125 0.111111 0.1 0.0909091 0.0833333 0.0769231 0.0714286
0.0666667 0.0625 0.0588235 0.0555556 0.0526316 0.05 0.047619 0.0454545
0.0434783 0.0416667 \; pdv_ramp normalize;
#X msg 22 594 add2 \$1;
#X obj 22 477 bng 15 250 50 0 empty empty empty 17 7 0 10 -262144 -1
-1;
#X msg 104 517 set \, addsemi \, add2 pdv_ramp sinesum 8192, f 13
;
#X msg 79 593 addsemi \, add2 pdv_ramp normalize;
#X obj 22 524 for++ 1 24;
#X obj 79 621 t a;
#X msg 416 544 1 \$1;
#X obj 416 567 /;
#X obj 377 452 t b b;
#X msg 377 593 add2 \$1;
#X obj 377 429 bng 15 250 50 0 empty empty empty 17 7 0 10 -262144
-1 -1;
#X text 397 427 sinesum for antialiased saw;
#X obj 452 620 t a;
#X text 42 475 sinesum for antialiased ramp;
#X obj 682 631 loadbang;
#X obj 30 15 table pdv_sin 8195;
#X obj 30 57 table pdv_tri 8195;
#X obj 170 14 table pdv_noise 8195;
#X obj 170 36 table pdv_ramp 8195;
#X obj 170 57 table pdv_pulse 8195;
#X msg 481 469 set \, addsemi \, add2 pdv_square sinesum 8192, f 13
;
#X msg 452 592 addsemi \, add2 pdv_square normalize;
#X msg 389 205 \; pdv_sin sinesum 8192 1 \; pdv_pulse sinesum 8192
1 1 1 1 1 1 1 1 1 1 1 1 1 1 1 1 1 \; pdv_pulse normalize;
#X obj 377 499 t f f;
#X obj 377 521 demux, f 7;
#X obj 416 499 % 2;
#X obj 377 544 * 0;
#X floatatom 443 404 5 0 0 0 - - -, f 5;
#X msg 376 648 \; pdv_square sinesum 8192 1 0 0.333333 0 0.2 0 0.142857
0 0.111111 0 0.0909091 0 0.0769231 0 0.0666667 0 0.0588235 0 0.0526316
0 0.047619 0 0.0434783 0 \; pdv_square normalize;
#X obj 377 476 for++ 1 24, f 13;
#X obj 30 36 table pdv_square 8195;
#X connect 0 0 1 0;
#X connect 1 0 2 0;
#X connect 1 0 10 0;
#X connect 2 0 28 0;
#X connect 2 1 5 0;
#X connect 3 0 4 0;
#X connect 3 0 6 0;
#X connect 3 0 27 0;
#X connect 4 0 3 1;
#X connect 5 0 3 1;
#X connect 6 0 8 0;
#X connect 6 1 29 1;
#X connect 7 0 9 0;
#X connect 8 0 7 0;
#X connect 9 0 29 0;
#X connect 10 0 14 0;
#X connect 10 1 15 0;
#X connect 11 0 12 0;
#X connect 11 0 13 0;
#X connect 11 0 24 0;
#X connect 12 0 11 1;
#X connect 13 0 14 1;
#X connect 14 0 11 0;
#X connect 15 0 11 1;
#X connect 16 0 17 0;
#X connect 16 1 23 0;
#X connect 17 0 30 0;
#X connect 18 0 20 0;
#X connect 19 0 22 0;
#X connect 20 0 30 0;
#X connect 21 0 19 0;
#X connect 22 0 30 0;
#X connect 23 0 21 0;
#X connect 23 1 18 0;
#X connect 24 0 16 0;
#X connect 24 1 30 1;
#X connect 25 0 59 0;
#X connect 27 0 28 1;
#X connect 28 0 3 0;
#X connect 33 0 34 0;
#X connect 34 0 37 0;
#X connect 35 0 41 0;
#X connect 35 1 39 0;
#X connect 37 0 42 0;
#X connect 38 0 35 0;
#X connect 39 0 42 0;
#X connect 40 0 42 0;
#X connect 41 0 33 0;
#X connect 41 1 40 0;
#X connect 42 0 36 0;
#X connect 43 0 44 0;
#X connect 44 0 46 0;
#X connect 45 0 66 0;
#X connect 45 1 57 0;
#X connect 46 0 49 0;
#X connect 47 0 45 0;
#X connect 49 0 65 0;
#X connect 51 0 36 0;
#X connect 51 0 65 0;
#X connect 57 0 49 0;
#X connect 58 0 49 0;
#X connect 60 0 61 0;
#X connect 60 1 62 0;
#X connect 61 0 63 0;
#X connect 61 1 43 0;
#X connect 62 0 61 1;
#X connect 63 0 46 0;
#X connect 64 0 66 1;
#X connect 66 0 60 0;
#X connect 66 1 58 0;
#X restore 8 22 pd TABLES;
#N canvas 882 327 450 300 MIDI 0;
#X obj 120 32 notein;
#X obj 32 80 pack;
#X obj 26 104 ol_msg;
#X obj 133 64 noteout;
#X obj 120 131 s \$0-midinote;
#X obj 114 131 cnv 5 5 17 empty empty empty 20 12 0 14 -194593 -66577
0;
#X obj 294 149 makenote;
#X obj 218 35 ol_metro;
#X obj 218 61 random 12;
#X obj 218 86 + 48;
#X connect 0 0 1 0;
#X connect 0 0 3 0;
#X connect 0 0 4 0;
#X connect 0 1 1 1;
#X connect 0 1 3 1;
#X connect 0 2 3 2;
#X connect 1 0 2 0;
#X connect 7 0 8 0;
#X connect 8 0 9 0;
#X connect 9 0 4 0;
#X restore 8 56 pd MIDI;
#N canvas 42 221 729 739 PRESETS 0;
#X obj 13 192 cnv 15 700 100 empty empty OSC1 5 12 1 14 -233017 -66577
0;
#X obj 593 269 send;
#X msg 614 225 \$1-OSC1/pw-r;
#X obj 614 247 symbol;
#X msg 173 225 \$1-OSC1/oct-r;
#X msg 283 225 \$1-OSC1/wave-r;
#X msg 392 225 \$1-OSC1/mod-r;
#X msg 502 225 \$1-OSC1/osc2-r;
#X obj 481 269 send;
#X obj 502 247 symbol;
#X obj 371 269 send;
#X obj 392 247 symbol;
#X obj 262 268 send;
#X obj 283 246 symbol;
#X obj 152 268 send;
#X obj 173 246 symbol;
#X obj 614 208 r \$0-pdv-ifid;
#X obj 587 269 cnv 5 5 17 empty empty empty 20 12 0 14 -194593 -66577
0;
#X obj 475 269 cnv 5 5 17 empty empty empty 20 12 0 14 -194593 -66577
0;
#X obj 365 269 cnv 5 5 17 empty empty empty 20 12 0 14 -194593 -66577
0;
#X obj 256 268 cnv 5 5 17 empty empty empty 20 12 0 14 -194593 -66577
0;
#X obj 146 268 cnv 5 5 17 empty empty empty 20 12 0 14 -194593 -66577
0;
#X obj 608 208 cnv 5 5 17 empty empty empty 20 12 0 14 -260626 -66577
0;
#X connect 2 0 3 0;
#X connect 3 0 1 1;
#X connect 4 0 15 0;
#X connect 5 0 13 0;
#X connect 6 0 11 0;
#X connect 7 0 9 0;
#X connect 9 0 8 1;
#X connect 11 0 10 1;
#X connect 13 0 12 1;
#X connect 15 0 14 1;
#X connect 16 0 4 0;
#X connect 16 0 5 0;
#X connect 16 0 6 0;
#X connect 16 0 7 0;
#X connect 16 0 2 0;
#X restore 8 39 pd PRESETS;
#N canvas 827 50 699 473 OSC2 0;
#X obj 143 368 cnv 4 62 15 empty empty empty 2 7 0 10 -257985 -66577
0;
#X obj 376 368 cnv 3 56 15 empty empty empty 2 7 0 10 -257985 -66577
0;
#X obj 29 99 iem_receive;
#X obj 142 99 iem_receive;
#X obj 261 99 iem_receive;
#X obj 374 99 iem_receive;
#X obj 495 99 iem_receive;
#X obj 142 121 text get \$0-OSC;
#X msg 29 181 get \$1 1;
#X obj 328 223 t b f;
#X obj 29 206 list store 0.5 1 2 4 8;
#X obj 328 247 * 1, f 5;
#X obj 255 418 ol_dac~;
#X obj 495 121 / 127;
#X msg 495 219 0.5;
#X obj 495 150 moses 0.47;
#X obj 495 174 moses 0.53;
#X obj 495 197 t b;
#X floatatom 576 138 5 0 0 0 - - -, f 5;
#X obj 442 220 + 0.035;
#X obj 552 219 - 0.035;
#X obj 278 385 +~;
#X msg 142 145 \$2 \$1;
#X obj 142 234 list split 1;
#X obj 176 258 sel pwm;
#X obj 216 282 t s b;
#X msg 243 306 1;
#X msg 176 282 0;
#X obj 328 19 r \$0-midinote;
#X obj 328 43 mtof;
#X obj 261 121 / 127;
#X obj 261 143 pow 2;
#X obj 261 166 * 5000;
#X obj 376 342 r~ \$0-LFO;
#X floatatom 362 41 0 0 0 0 - - -;
#X obj 601 59 r \$0-pdv-ifid;
#X text 378 319 must be outside subpatch !;
#X floatatom 285 29 5 0 0 0 - - -, f 5;
#X msg 29 76 set \$1-OSC2/oct;
#X msg 142 76 set \$1-OSC2/wave;
#X msg 261 76 set \$1-OSC2/mod;
#X msg 374 76 set \$1-OSC2/pitch;
#X msg 495 76 set \$1-OSC2/pw;
#X obj 176 333 s \$0-OSC2-wavetype;
#X obj 327 272 s \$0-OSC12fr;
#X obj 261 189 s \$0-OSC2-mod;
#X obj 495 250 s \$0-OSC2-pw;
#X floatatom 373 134 5 0 0 0 - - -, f 5;
#X obj 322 19 cnv 5 5 17 empty empty empty 20 12 0 14 -260626 -66577
0;
#X obj 370 342 cnv 5 5 17 empty empty empty 20 12 0 14 -260626 -66577
0;
#X obj 170 333 cnv 5 5 17 empty empty empty 20 12 0 14 -194593 -66577
0;
#X obj 321 272 cnv 5 5 17 empty empty empty 20 12 0 14 -194593 -66577
0;
#X obj 255 189 cnv 5 5 17 empty empty empty 20 12 0 14 -194593 -66577
0;
#X obj 489 250 cnv 5 5 17 empty empty empty 20 12 0 14 -194593 -66577
0;
#N canvas 35 409 545 483 tabread 0;
#X obj 441 409 switch~;
#X obj 467 346 loadbang;
#X msg 467 369 1;
#X obj 35 360 *~ 8192;
#X text 87 360 table size;
#X obj 36 80 line~;
#X obj 36 58 pack 0 10;
#X obj 35 336 phasor~;
#X obj 33 449 outlet~;
#X obj 34 425 *~;
#X text 383 244 on/off;
#X text 28 17 frequency;
#X obj 34 393 tabread~ pdv_sin;
#X obj 441 386 tgl 15 0 empty empty empty 17 7 0 10 -262144 -1 -1 1
1;
#X obj 36 115 *~ 1;
#X obj 147 34 inlet;
#X text 125 15 saw modifier;
#X floatatom 147 58 5 0 0 0 - - -, f 5;
#X obj 387 288 t f f;
#X obj 414 312 sel 0;
#X obj 414 335 del 30;
#X msg 414 358 0;
#X obj 387 409 line~;
#X msg 387 386 \$1 10;
#X obj 125 148 *~;
#X floatatom 202 50 5 0 0 0 - - -, f 5;
#X text 234 14 modulator1;
#X floatatom 96 75 5 0 0 0 - - -, f 5;
#X obj 35 243 +~;
#X obj 126 227 +~;
#X obj 148 176 -~;
#X obj 148 203 max~ 0;
#X obj 246 131 line~;
#X obj 246 59 pack 0 20;
#X text 142 95 LFO~;
#X obj 124 116 r~ \$0-LFO;
#X msg 300 376 set \$1;
#X obj 300 352 inlet;
#X obj 36 35 r \$0-OSC2-fr;
#X obj 246 33 r \$0-OSC2-mod;
#X obj 387 264 r \$0-OSC2-wavetype;
#X obj 27 449 cnv 5 5 17 empty empty empty 20 12 0 14 -102336 -66577
0;
#X obj 141 34 cnv 5 5 17 empty empty empty 20 12 0 14 -118750 -66577
0;
#X obj 381 264 cnv 5 5 17 empty empty empty 20 12 0 14 -260626 -66577
0;
#X obj 118 116 cnv 5 5 17 empty empty empty 20 12 0 14 -260626 -66577
0;
#X obj 240 33 cnv 5 5 17 empty empty empty 20 12 0 14 -260626 -66577
0;
#X obj 30 35 cnv 5 5 17 empty empty empty 20 12 0 14 -260626 -66577
0;
#X obj 294 352 cnv 5 5 17 empty empty empty 20 12 0 14 -118750 -66577
0;
#X obj 27 449 cnv 5 5 17 empty empty empty 20 12 0 14 -102336 -66577
0;
#X obj 141 34 cnv 5 5 17 empty empty empty 20 12 0 14 -118750 -66577
0;
#X obj 381 264 cnv 5 5 17 empty empty empty 20 12 0 14 -260626 -66577
0;
#X obj 118 116 cnv 5 5 17 empty empty empty 20 12 0 14 -260626 -66577
0;
#X obj 240 33 cnv 5 5 17 empty empty empty 20 12 0 14 -260626 -66577
0;
#X obj 30 35 cnv 5 5 17 empty empty empty 20 12 0 14 -260626 -66577
0;
#X obj 294 352 cnv 5 5 17 empty empty empty 20 12 0 14 -118750 -66577
0;
#X connect 1 0 2 0;
#X connect 2 0 13 0;
#X connect 3 0 12 0;
#X connect 5 0 14 0;
#X connect 5 0 30 1;
#X connect 6 0 5 0;
#X connect 6 0 27 0;
#X connect 7 0 3 0;
#X connect 9 0 8 0;
#X connect 12 0 9 0;
#X connect 13 0 0 0;
#X connect 14 0 28 0;
#X connect 15 0 14 1;
#X connect 15 0 17 0;
#X connect 18 0 23 0;
#X connect 18 1 19 0;
#X connect 19 0 20 0;
#X connect 19 1 13 0;
#X connect 20 0 21 0;
#X connect 21 0 13 0;
#X connect 22 0 9 1;
#X connect 23 0 22 0;
#X connect 24 0 29 0;
#X connect 28 0 7 0;
#X connect 29 0 28 1;
#X connect 30 0 31 0;
#X connect 31 0 29 1;
#X connect 32 0 24 1;
#X connect 32 0 30 0;
#X connect 33 0 32 0;
#X connect 35 0 24 0;
#X connect 36 0 12 0;
#X connect 37 0 36 0;
#X connect 38 0 6 0;
#X connect 39 0 25 0;
#X connect 39 0 33 0;
#X connect 40 0 18 0;
#X restore 142 367 pd tabread;
#N canvas 556 341 693 629 square 0;
#X obj 21 465 rzero~ -1;
#X obj 21 488 rzero~ -1;
#X obj 21 511 rzero~ -1;
#X obj 20 586 outlet~;
#X obj 20 346 rpole~ 0.87467;
#X obj 20 323 *~ 0.12532;
#X obj 20 369 *~ 0.01668;
#X obj 239 280 / 16;
#X floatatom 239 436 7 0 0 0 - - -, f 7;
#X obj 239 255 / 22050;
#X floatatom 286 416 7 0 0 0 - - -, f 7;
#X floatatom 333 396 7 0 0 0 - - -, f 7;
#X floatatom 381 376 7 0 0 0 - - -, f 7;
#X floatatom 428 356 7 0 0 0 - - -, f 7;
#X text 295 437 normalizer for rpole~;
#X text 345 416 normalizer for cpole~;
#X text 391 397 coef for rpole~;
#X text 440 378 coef for cpole~ real part;
#X text 482 355 (same \, other cpole~);
#X obj 20 392 cpole~ 0.9293 0.10812;
#X obj 20 418 cpole~ 0.9293 -0.10812;
#X text 299 256 divide by nyquist frequency of this subpatch \, which
is 22050*16 because of the 16-times oversampling.;
#N canvas 0 50 450 300 butterworth_from_oversampling_example 0;
#X obj 63 51 inlet;
#X floatatom 522 134 5 0 0 0 - - -, f 5;
#X obj 101 153 t f f;
#X msg 101 108 0.667;
#X msg 82 283 0;
#X obj 517 270 loadbang;
#X obj 528 298 inlet;
#X obj 517 322 f;
#X obj 517 346 expr 1 - 2*$f1;
#X obj 63 79 t b b b f;
#X obj 205 228 * -1;
#X obj 163 228 t f f;
#X obj 63 391 f;
#X obj 30 463 outlet;
#X text 515 237 1 to normalize at Nyquist;
#X text 59 30 characteristic frequency \, 0(DC) to 1(Nyquist);
#X obj 283 470 outlet;
#X obj 439 472 outlet;
#X text 439 494 imag2a;
#X text 283 492 real1;
#X text 374 494 real2;
#X obj 500 473 outlet;
#X text 500 495 imag2b;
#X obj 373 470 outlet;
#X text 27 485 normalizer1;
#X obj 173 470 outlet;
#X text 170 492 normalizer2;
#X obj 156 436 expr (($f2-$f1)*($f2-$f1)+$f3*$f3);
#X obj 63 412 t f f;
#X obj 101 176 expr (1 - $f2*$f2) / (1 + $f2*$f2 + 2*$f2*cos($f1))
;
#X obj 163 205 expr 2*$f2*sin($f1) / (1 + $f2*$f2 + 2*$f2*cos($f1))
;
#X obj 82 307 expr (1 - $f2*$f2) / (1 + $f2*$f2 + 2*$f2*cos($f1));
#X obj 522 89 clip 0 1;
#X obj 522 111 expr tan($f1*1.57);
#X obj 101 131 expr $f1*1.5708;
#X text 515 251 0 to normalize at DC;
#X text 119 4 3-pole (or zero) Butterworth filter coefficient calculator
;
#X text 145 109 "theta" in units of pi/2;
#X text 211 138 conjugate pair of pole/zero locations:;
#X text 197 155 real part: (1-r*r)/(1+r*r-2rcos(th));
#X text 245 226 imaginary part: 2rsin(th)/(...);
#X text 270 282 real-valued one \, theta=0;
#X obj 30 439 expr abs($f1-$f2);
#X obj 57 51 cnv 5 5 17 empty empty empty 20 12 0 14 -118750 -66577
0;
#X obj 522 298 cnv 5 5 17 empty empty empty 20 12 0 14 -118750 -66577
0;
#X obj 24 463 cnv 5 5 17 empty empty empty 20 12 0 14 -102336 -66577
0;
#X obj 277 470 cnv 5 5 17 empty empty empty 20 12 0 14 -102336 -66577
0;
#X obj 433 472 cnv 5 5 17 empty empty empty 20 12 0 14 -102336 -66577
0;
#X obj 494 473 cnv 5 5 17 empty empty empty 20 12 0 14 -102336 -66577
0;
#X obj 367 470 cnv 5 5 17 empty empty empty 20 12 0 14 -102336 -66577
0;
#X obj 167 470 cnv 5 5 17 empty empty empty 20 12 0 14 -102336 -66577
0;
#X obj 57 51 cnv 5 5 17 empty empty empty 20 12 0 14 -118750 -66577
0;
#X obj 522 298 cnv 5 5 17 empty empty empty 20 12 0 14 -118750 -66577
0;
#X obj 24 463 cnv 5 5 17 empty empty empty 20 12 0 14 -102336 -66577
0;
#X obj 277 470 cnv 5 5 17 empty empty empty 20 12 0 14 -102336 -66577
0;
#X obj 433 472 cnv 5 5 17 empty empty empty 20 12 0 14 -102336 -66577
0;
#X obj 494 473 cnv 5 5 17 empty empty empty 20 12 0 14 -102336 -66577
0;
#X obj 367 470 cnv 5 5 17 empty empty empty 20 12 0 14 -102336 -66577
0;
#X obj 167 470 cnv 5 5 17 empty empty empty 20 12 0 14 -102336 -66577
0;
#X connect 0 0 9 0;
#X connect 1 0 29 1;
#X connect 1 0 30 1;
#X connect 1 0 31 1;
#X connect 2 0 29 0;
#X connect 2 1 30 0;
#X connect 3 0 34 0;
#X connect 4 0 31 0;
#X connect 5 0 7 0;
#X connect 6 0 7 0;
#X connect 7 0 8 0;
#X connect 8 0 12 1;
#X connect 9 0 12 0;
#X connect 9 1 4 0;
#X connect 9 2 3 0;
#X connect 9 3 32 0;
#X connect 10 0 21 0;
#X connect 11 0 17 0;
#X connect 11 0 27 2;
#X connect 11 1 10 0;
#X connect 12 0 28 0;
#X connect 27 0 25 0;
#X connect 28 0 42 0;
#X connect 28 1 27 0;
#X connect 29 0 23 0;
#X connect 29 0 27 1;
#X connect 30 0 11 0;
#X connect 31 0 16 0;
#X connect 31 0 42 1;
#X connect 32 0 33 0;
#X connect 33 0 1 0;
#X connect 34 0 2 0;
#X connect 42 0 13 0;
#X restore 239 306 pd butterworth_from_oversampling_example;
#X obj 275 484 pack;
#X obj 346 483 pack;
#X obj 428 462 * -1;
#X msg 275 511 set \$1 \$2;
#X msg 346 511 set \$1 \$2;
#X obj 21 297 expr~ ($v1 > $v2) * 2 - 1;
#X obj 138 124 line~;
#X obj 21 442 *~ 0.125;
#X floatatom 122 508 5 0 0 0 - - -, f 5;
#X obj 22 92 line~;
#X obj 22 269 phasor~;
#X obj 239 229 * 1000;
#X msg 239 203 6;
#X floatatom 269 203 5 0 0 0 - - -, f 5;
#X obj 239 54 loadbang;
#X msg 154 71 0.5;
#X obj 22 66 pack 0 20;
#X obj 138 100 pack 0 20;
#X obj 534 553 tgl 15 0 empty empty empty 17 7 0 10 -262144 -1 -1 0
1;
#X obj 534 574 switch~ 1024 1 16;
#X obj 580 501 loadbang;
#X msg 580 536 0;
#X obj 20 561 *~;
#X text 542 60 on/off;
#X text 17 18 frequency;
#X text 165 17 pw;
#X obj 507 61 == 0;
#X obj 507 86 t f f;
#X obj 534 110 sel 0;
#X obj 534 133 del 30;
#X msg 534 156 0;
#X obj 50 561 line~;
#X msg 50 538 \$1 10;
#X obj 51 215 *~;
#X floatatom 316 122 5 0 0 0 - - -, f 5;
#X text 304 21 modulator1;
#X obj 51 242 +~;
#X obj 81 215 -~;
#X obj 81 242 max~ 0;
#X obj 72 174 line~;
#X obj 316 66 pack 0 20;
#X obj 52 143 inlet~;
#X text 60 122 LFO~;
#X obj 22 242 +~;
#X obj 22 36 r \$0-OSC2-fr;
#X obj 138 36 r \$0-OSC2-pw;
#X obj 316 40 r \$0-OSC2-mod;
#X obj 507 36 r \$0-OSC2-wavetype;
#X obj 14 586 cnv 5 5 17 empty empty empty 20 12 0 14 -102336 -66577
0;
#X obj 14 586 cnv 5 5 17 empty empty empty 20 12 0 14 -102336 -66577
0;
#X obj 46 143 cnv 5 5 17 empty empty empty 20 12 0 14 -118750 -66577
0;
#X obj 16 36 cnv 5 5 17 empty empty empty 20 12 0 14 -260626 -66577
0;
#X obj 132 36 cnv 5 5 17 empty empty empty 20 12 0 14 -260626 -66577
0;
#X obj 310 40 cnv 5 5 17 empty empty empty 20 12 0 14 -260626 -66577
0;
#X obj 501 36 cnv 5 5 17 empty empty empty 20 12 0 14 -260626 -66577
0;
#X obj 14 586 cnv 5 5 17 empty empty empty 20 12 0 14 -102336 -66577
0;
#X obj 14 586 cnv 5 5 17 empty empty empty 20 12 0 14 -102336 -66577
0;
#X obj 46 143 cnv 5 5 17 empty empty empty 20 12 0 14 -118750 -66577
0;
#X obj 16 36 cnv 5 5 17 empty empty empty 20 12 0 14 -260626 -66577
0;
#X obj 132 36 cnv 5 5 17 empty empty empty 20 12 0 14 -260626 -66577
0;
#X obj 310 40 cnv 5 5 17 empty empty empty 20 12 0 14 -260626 -66577
0;
#X obj 501 36 cnv 5 5 17 empty empty empty 20 12 0 14 -260626 -66577
0;
#X connect 0 0 1 0;
#X connect 1 0 2 0;
#X connect 2 0 45 0;
#X connect 4 0 6 0;
#X connect 5 0 4 0;
#X connect 6 0 19 0;
#X connect 7 0 22 0;
#X connect 9 0 7 0;
#X connect 19 0 20 0;
#X connect 19 1 20 1;
#X connect 20 0 30 0;
#X connect 22 0 8 0;
#X connect 22 0 5 1;
#X connect 22 1 10 0;
#X connect 22 1 6 1;
#X connect 22 2 11 0;
#X connect 22 2 4 1;
#X connect 22 3 12 0;
#X connect 22 3 23 0;
#X connect 22 3 24 0;
#X connect 22 4 13 0;
#X connect 22 4 23 1;
#X connect 22 4 25 0;
#X connect 23 0 26 0;
#X connect 24 0 27 0;
#X connect 25 0 24 1;
#X connect 26 0 19 0;
#X connect 27 0 20 0;
#X connect 28 0 5 0;
#X connect 29 0 28 1;
#X connect 30 0 0 0;
#X connect 31 0 30 1;
#X connect 32 0 66 0;
#X connect 33 0 28 0;
#X connect 34 0 9 0;
#X connect 35 0 34 0;
#X connect 36 0 34 0;
#X connect 37 0 38 0;
#X connect 37 0 35 0;
#X connect 38 0 40 0;
#X connect 39 0 32 0;
#X connect 40 0 29 0;
#X connect 41 0 42 0;
#X connect 43 0 44 0;
#X connect 44 0 41 0;
#X connect 45 0 3 0;
#X connect 49 0 50 0;
#X connect 50 0 55 0;
#X connect 50 1 51 0;
#X connect 51 0 52 0;
#X connect 51 1 41 0;
#X connect 52 0 53 0;
#X connect 53 0 41 0;
#X connect 54 0 45 1;
#X connect 55 0 54 0;
#X connect 56 0 59 0;
#X connect 59 0 66 1;
#X connect 60 0 61 0;
#X connect 61 0 59 1;
#X connect 62 0 56 1;
#X connect 62 0 60 0;
#X connect 63 0 62 0;
#X connect 64 0 56 0;
#X connect 66 0 33 0;
#X connect 67 0 39 0;
#X connect 68 0 40 0;
#X connect 69 0 57 0;
#X connect 69 0 63 0;
#X connect 70 0 49 0;
#X restore 375 367 pd square;
#X obj 595 59 cnv 5 5 17 empty empty empty 20 12 0 14 -260626 -66577
0;
#X obj 255 189 cnv 5 5 17 empty empty empty 20 12 0 14 -194593 -66577
0;
#X obj 170 333 cnv 5 5 17 empty empty empty 20 12 0 14 -194593 -66577
0;
#X obj 322 272 cnv 5 5 17 empty empty empty 20 12 0 14 -194593 -66577
0;
#X obj 489 250 cnv 5 5 17 empty empty empty 20 12 0 14 -194593 -66577
0;
#X obj 23 76 cnv 5 5 17 empty empty empty 20 12 0 14 -260626 -66577
0;
#X obj 136 76 cnv 5 5 17 empty empty empty 20 12 0 14 -260626 -66577
0;
#X obj 255 76 cnv 5 5 17 empty empty empty 20 12 0 14 -260626 -66577
0;
#X obj 368 76 cnv 5 5 17 empty empty empty 20 12 0 14 -260626 -66577
0;
#X obj 489 76 cnv 5 5 17 empty empty empty 20 12 0 14 -260626 -66577
0;
#X obj 28 16 cnv 15 70 20 empty empty OSC2 20 12 0 14 -233017 -66577
0;
#X connect 2 0 8 0;
#X connect 3 0 7 0;
#X connect 4 0 30 0;
#X connect 5 0 47 0;
#X connect 6 0 13 0;
#X connect 7 0 22 0;
#X connect 8 0 10 0;
#X connect 9 0 11 0;
#X connect 9 1 11 1;
#X connect 10 0 9 0;
#X connect 11 0 44 0;
#X connect 13 0 15 0;
#X connect 13 0 18 0;
#X connect 14 0 46 0;
#X connect 15 0 19 0;
#X connect 15 1 16 0;
#X connect 16 0 17 0;
#X connect 16 1 20 0;
#X connect 17 0 14 0;
#X connect 19 0 46 0;
#X connect 20 0 46 0;
#X connect 21 0 12 0;
#X connect 21 0 12 1;
#X connect 22 0 23 0;
#X connect 23 0 54 0;
#X connect 23 1 24 0;
#X connect 24 0 27 0;
#X connect 24 1 25 0;
#X connect 25 0 54 1;
#X connect 25 1 26 0;
#X connect 26 0 43 0;
#X connect 27 0 43 0;
#X connect 28 0 29 0;
#X connect 29 0 11 0;
#X connect 29 0 34 0;
#X connect 30 0 31 0;
#X connect 31 0 32 0;
#X connect 32 0 45 0;
#X connect 33 0 55 0;
#X connect 35 0 38 0;
#X connect 35 0 39 0;
#X connect 35 0 40 0;
#X connect 35 0 41 0;
#X connect 35 0 42 0;
#X connect 37 0 29 0;
#X connect 38 0 2 0;
#X connect 39 0 3 0;
#X connect 40 0 4 0;
#X connect 41 0 5 0;
#X connect 42 0 6 0;
#X connect 54 0 21 0;
#X connect 55 0 21 1;
#X restore 81 39 pd OSC2;
#N canvas 835 430 699 473 LFO 0;
#X obj 139 131 s~ \$0-LFO;
#X floatatom 139 87 5 0 0 0 - - -, f 5;
#X obj 139 107 osc~ 5;
#X connect 1 0 2 0;
#X connect 2 0 0 0;
#X restore 81 56 pd LFO;
#N canvas 827 50 699 473 GLOBAL 0;
#X restore 81 5 pd GLOBAL;
#N canvas 827 50 699 473 MIXER 0;
#X restore 217 21 pd MIXER;
#N canvas 827 50 699 473 AMP 0;
#X restore 148 5 pd AMP;
#N canvas 827 50 699 473 FILTER 0;
#X restore 148 22 pd FILTER;
#N canvas 827 50 699 473 TIME 0;
#X restore 217 4 pd TIME;
#N canvas 827 50 699 473 DELAY 0;
#X restore 148 39 pd DELAY;
#N canvas 827 50 699 473 PHASER 0;
#X restore 148 56 pd PHASER;
#X restore 735 6 pd GUTS;
#X obj 4 3 ./abs/pdv_interface \$0;
#X obj 6 74 declare -stdlib zexy -stdlib iemlib/iemlib1 -stdlib iemlib/iemlib2
-stdpath iemgui -stdpath iemguts -path ./abs -path ./gifs -path ./tables
, f 26;
